<svg xmlns="http://www.w3.org/2000/svg" id="canvas" viewBox="529.579 234.663 472.949 277.242"><path d="M 562.78,278.07 C 562.03 279.83, 562.17 282.21, 561.36 287.15 C 560.55 292.09, 559.92 295.27, 558.73 302.76 C 557.55 310.26, 556.86 315.10, 555.43 324.61 C 554.00 334.12, 553.26 339.45, 551.59 350.31 C 549.93 361.16, 548.87 367.16, 547.10 378.87 C 545.32 390.59, 544.40 396.98, 542.71 408.86 C 541.02 420.74, 540.15 427.02, 538.67 438.27 C 537.19 449.52, 536.36 455.35, 535.30 465.10 C 534.24 474.85, 533.91 479.79, 533.36 487.02 C 532.82 494.26, 532.65 497.09, 532.59 501.27 C 532.53 505.45, 532.71 506.58, 533.08 507.91 C 533.44 509.24, 534.06 509.23, 534.43 507.92 C 534.80 506.60, 534.73 505.49, 534.93 501.34 C 535.12 497.19, 535.00 494.37, 535.41 487.16 C 535.81 479.94, 536.00 475.01, 536.95 465.27 C 537.89 455.53, 538.70 449.70, 540.13 438.46 C 541.57 427.22, 542.45 420.94, 544.13 409.06 C 545.82 397.19, 546.75 390.80, 548.57 379.10 C 550.39 367.40, 551.46 361.40, 553.23 350.56 C 555.00 339.73, 555.82 334.40, 557.41 324.92 C 559.00 315.44, 559.81 310.64, 561.17 303.18 C 562.54 295.72, 563.43 292.57, 564.21 287.61 C 565.00 282.65, 565.40 280.28, 565.11 278.37 C 564.82 276.46, 563.53 276.32, 562.78 278.07" style="stroke: black; fill: black;"/><path d="M 552.14,297.28 C 552.11 299.02, 552.89 301.15, 554.25 305.22 C 555.61 309.29, 556.93 312.31, 558.95 317.63 C 560.97 322.96, 561.98 326.46, 564.36 331.86 C 566.73 337.25, 568.03 340.39, 570.83 344.62 C 573.62 348.85, 574.76 350.83, 578.33 352.99 C 581.89 355.15, 584.14 355.82, 588.66 355.43 C 593.17 355.04, 595.86 354.16, 600.91 351.04 C 605.96 347.92, 608.48 345.44, 613.90 339.84 C 619.33 334.24, 622.36 330.43, 628.04 323.04 C 633.73 315.65, 636.87 311.14, 642.31 302.88 C 647.76 294.61, 650.46 289.66, 655.26 281.72 C 660.06 273.78, 662.43 269.64, 666.31 263.18 C 670.18 256.72, 671.97 253.80, 674.64 249.41 C 677.31 245.02, 678.59 243.33, 679.66 241.23 C 680.74 239.13, 680.24 238.36, 680.00 238.92 C 679.77 239.47, 679.19 240.29, 678.50 244.00 C 677.81 247.71, 677.63 250.64, 676.57 257.45 C 675.52 264.26, 674.78 268.65, 673.23 278.07 C 671.68 287.48, 670.56 293.33, 668.83 304.54 C 667.09 315.75, 666.02 322.17, 664.53 334.13 C 663.05 346.08, 662.41 352.30, 661.40 364.30 C 660.39 376.31, 659.95 382.58, 659.49 394.14 C 659.03 405.71, 659.13 411.52, 659.10 422.14 C 659.06 432.76, 659.01 437.93, 659.31 447.24 C 659.60 456.56, 660.15 461.20, 660.55 468.71 C 660.95 476.22, 661.07 479.57, 661.31 484.80 C 661.54 490.03, 661.37 491.96, 661.74 494.87 C 662.10 497.78, 662.42 498.29, 663.13 499.36 C 663.85 500.44, 664.58 500.36, 665.32 500.24 C 666.06 500.13, 666.88 499.30, 666.83 498.78 C 666.78 498.26, 665.49 497.60, 665.07 497.66 C 664.66 497.72, 664.70 498.86, 664.75 499.08 C 664.80 499.29, 665.17 499.68, 665.33 498.75 C 665.49 497.83, 665.83 497.27, 665.56 494.44 C 665.28 491.61, 664.54 489.76, 663.94 484.59 C 663.34 479.42, 663.16 476.06, 662.57 468.58 C 661.99 461.10, 661.39 456.47, 661.00 447.18 C 660.60 437.89, 660.63 432.74, 660.61 422.14 C 660.59 411.54, 660.47 405.74, 660.91 394.20 C 661.35 382.66, 661.79 376.40, 662.81 364.42 C 663.82 352.45, 664.47 346.23, 666.00 334.31 C 667.54 322.39, 668.62 315.98, 670.48 304.81 C 672.34 293.63, 673.51 287.80, 675.30 278.44 C 677.09 269.07, 678.04 264.75, 679.44 257.97 C 680.85 251.19, 681.98 248.46, 682.33 244.52 C 682.68 240.58, 682.26 239.32, 681.20 238.29 C 680.14 237.26, 678.81 237.42, 677.03 239.37 C 675.24 241.32, 674.80 243.49, 672.29 248.04 C 669.78 252.59, 668.21 255.58, 664.49 262.12 C 660.76 268.66, 658.40 272.81, 653.66 280.75 C 648.91 288.70, 646.21 293.64, 640.76 301.85 C 635.32 310.06, 632.15 314.53, 626.44 321.79 C 620.73 329.05, 617.60 332.80, 612.20 338.16 C 606.80 343.51, 604.19 345.77, 599.43 348.59 C 594.66 351.40, 592.26 351.90, 588.39 352.22 C 584.52 352.54, 583.03 352.05, 580.07 350.18 C 577.10 348.30, 576.09 346.77, 573.56 342.84 C 571.03 338.91, 569.69 335.81, 567.41 330.52 C 565.14 325.24, 564.15 321.73, 562.20 316.42 C 560.25 311.11, 559.23 307.97, 557.68 303.98 C 556.12 299.99, 555.53 297.83, 554.42 296.49 C 553.32 295.14, 552.18 295.53, 552.14 297.28" style="stroke: black; fill: black;"/><path d="M 780.24,389.91 C 781.10 389.01, 781.73 387.66, 782.05 385.29 C 782.37 382.91, 782.60 381.04, 781.82 378.02 C 781.04 375.01, 780.22 372.91, 778.15 370.21 C 776.08 367.51, 774.61 365.96, 771.47 364.52 C 768.33 363.08, 766.46 362.73, 762.45 363.02 C 758.44 363.32, 756.19 363.95, 751.43 366.00 C 746.67 368.06, 743.86 369.47, 738.66 373.32 C 733.46 377.17, 730.49 379.75, 725.43 385.23 C 720.37 390.72, 717.67 394.02, 713.37 400.73 C 709.06 407.44, 706.80 411.50, 703.91 418.78 C 701.01 426.07, 700.01 430.22, 698.90 437.17 C 697.80 444.11, 697.79 447.61, 698.38 453.49 C 698.96 459.37, 699.60 462.18, 701.81 466.55 C 704.03 470.92, 705.80 472.92, 709.43 475.34 C 713.07 477.76, 715.52 478.59, 720.01 478.66 C 724.50 478.73, 727.03 478.01, 731.88 475.67 C 736.74 473.34, 739.38 471.60, 744.27 466.99 C 749.17 462.37, 751.88 459.12, 756.37 452.60 C 760.87 446.08, 763.07 441.93, 766.75 434.38 C 770.44 426.83, 772.14 422.30, 774.80 414.84 C 777.46 407.38, 778.77 402.78, 780.05 397.07 C 781.32 391.35, 781.69 388.68, 781.18 386.27 C 780.68 383.87, 779.01 383.64, 777.53 385.03 C 776.06 386.43, 775.05 388.51, 773.82 393.24 C 772.59 397.97, 772.09 401.96, 771.39 408.70 C 770.68 415.43, 770.42 419.90, 770.29 426.92 C 770.16 433.93, 770.26 437.59, 770.71 443.78 C 771.17 449.97, 771.64 452.87, 772.58 457.87 C 773.51 462.87, 774.06 465.31, 775.39 468.77 C 776.73 472.24, 777.68 473.47, 779.24 475.18 C 780.80 476.90, 781.85 477.05, 783.20 477.36 C 784.56 477.68, 785.48 477.20, 786.03 476.77 C 786.58 476.34, 786.32 475.60, 785.96 475.21 C 785.60 474.82, 784.94 475.32, 784.21 474.81 C 783.49 474.31, 783.39 474.18, 782.35 472.68 C 781.31 471.17, 780.36 470.38, 779.01 467.29 C 777.65 464.20, 776.69 461.99, 775.57 457.24 C 774.45 452.50, 773.91 449.62, 773.42 443.57 C 772.92 437.52, 772.82 433.89, 773.09 427.00 C 773.35 420.10, 773.86 415.68, 774.74 409.10 C 775.62 402.52, 776.53 398.69, 777.49 394.10 C 778.44 389.51, 779.31 387.71, 779.51 386.15 C 779.71 384.59, 778.91 384.24, 778.47 386.31 C 778.02 388.37, 778.45 390.91, 777.29 396.47 C 776.12 402.02, 775.14 406.70, 772.64 414.09 C 770.14 421.48, 768.43 425.99, 764.79 433.42 C 761.15 440.85, 758.91 444.94, 754.44 451.25 C 749.97 457.57, 747.22 460.69, 742.45 465.01 C 737.67 469.33, 735.04 470.81, 730.56 472.87 C 726.09 474.92, 723.92 475.33, 720.06 475.27 C 716.20 475.21, 714.38 474.59, 711.25 472.57 C 708.13 470.55, 706.51 469.06, 704.45 465.19 C 702.38 461.31, 701.60 458.74, 700.95 453.21 C 700.30 447.68, 700.21 444.24, 701.21 437.52 C 702.21 430.80, 703.16 426.71, 705.97 419.60 C 708.78 412.49, 711.01 408.49, 715.27 401.95 C 719.52 395.42, 722.22 392.18, 727.24 386.93 C 732.26 381.68, 735.25 379.22, 740.36 375.69 C 745.46 372.15, 748.29 370.95, 752.75 369.26 C 757.21 367.58, 759.37 367.31, 762.65 367.27 C 765.93 367.22, 767.04 367.76, 769.15 369.03 C 771.25 370.30, 771.95 371.46, 773.19 373.61 C 774.43 375.75, 774.70 377.38, 775.37 379.75 C 776.03 382.13, 776.04 383.49, 776.51 385.48 C 776.98 387.48, 776.98 388.85, 777.73 389.74 C 778.47 390.62, 779.37 390.80, 780.24 389.91" style="stroke: black; fill: black;"/><path d="M 817.48,386.30 C 816.72 387.41, 816.57 388.80, 816.00 392.04 C 815.44 395.27, 815.17 397.30, 814.66 402.46 C 814.14 407.62, 813.90 411.41, 813.43 417.84 C 812.96 424.27, 812.61 427.98, 812.31 434.61 C 812.00 441.24, 811.97 445.01, 811.91 450.99 C 811.85 456.98, 811.70 460.13, 812.01 464.53 C 812.32 468.92, 812.50 470.93, 813.46 472.97 C 814.42 475.00, 815.42 475.39, 816.83 474.69 C 818.24 473.99, 819.42 472.97, 820.51 469.48 C 821.61 465.98, 821.28 463.00, 822.31 457.22 C 823.33 451.44, 823.77 447.64, 825.65 440.57 C 827.54 433.49, 828.85 429.19, 831.72 421.85 C 834.59 414.50, 836.44 410.45, 840.02 403.83 C 843.60 397.21, 845.77 393.97, 849.62 388.75 C 853.47 383.53, 855.52 381.13, 859.27 377.73 C 863.02 374.33, 865.08 373.16, 868.37 371.76 C 871.66 370.36, 873.04 370.16, 875.72 370.74 C 878.40 371.32, 879.52 371.93, 881.78 374.65 C 884.04 377.37, 885.43 379.52, 887.03 384.34 C 888.62 389.15, 889.03 392.27, 889.75 398.74 C 890.46 405.21, 890.60 409.59, 890.60 416.68 C 890.60 423.77, 890.38 427.76, 889.74 434.19 C 889.10 440.62, 888.33 443.82, 887.39 448.82 C 886.45 453.82, 885.57 456.03, 885.06 459.21 C 884.54 462.38, 884.75 463.19, 884.82 464.71 C 884.88 466.24, 885.09 466.37, 885.39 466.82 C 885.70 467.26, 885.94 467.27, 886.34 466.94 C 886.74 466.60, 886.87 466.53, 887.40 465.13 C 887.94 463.72, 888.42 463.07, 889.02 459.90 C 889.63 456.74, 889.73 454.39, 890.41 449.30 C 891.08 444.21, 891.84 440.96, 892.40 434.44 C 892.97 427.91, 893.20 423.88, 893.24 416.68 C 893.28 409.49, 893.22 405.12, 892.61 398.45 C 892.00 391.78, 891.78 388.57, 890.18 383.34 C 888.58 378.10, 887.36 375.51, 884.62 372.27 C 881.88 369.02, 879.99 367.82, 876.48 367.11 C 872.96 366.40, 870.86 367.00, 867.03 368.71 C 863.21 370.43, 861.24 371.96, 857.36 375.68 C 853.49 379.40, 851.52 381.91, 847.66 387.32 C 843.79 392.74, 841.64 396.02, 838.02 402.75 C 834.40 409.49, 832.54 413.57, 829.55 420.98 C 826.55 428.40, 825.18 432.72, 823.03 439.82 C 820.88 446.92, 820.16 450.78, 818.79 456.49 C 817.41 462.19, 816.78 464.96, 816.14 468.37 C 815.49 471.78, 815.46 472.76, 815.54 473.53 C 815.63 474.30, 816.56 474.06, 816.57 472.20 C 816.58 470.35, 815.95 468.49, 815.60 464.25 C 815.25 460.01, 814.91 456.88, 814.81 450.98 C 814.72 445.08, 814.77 441.32, 815.12 434.75 C 815.47 428.17, 815.91 424.48, 816.56 418.11 C 817.21 411.75, 817.63 408.02, 818.37 402.91 C 819.12 397.81, 820.00 395.88, 820.29 392.59 C 820.57 389.31, 820.35 387.75, 819.79 386.49 C 819.23 385.24, 818.24 385.19, 817.48 386.30" style="stroke: black; fill: black;"/><path d="M 924.89,374.90 C 924.09 376.15, 923.89 377.87, 923.22 381.46 C 922.55 385.05, 922.24 387.48, 921.54 392.84 C 920.85 398.20, 920.34 401.83, 919.74 408.25 C 919.13 414.66, 918.62 418.16, 918.52 424.93 C 918.43 431.69, 918.43 435.40, 919.26 442.06 C 920.09 448.73, 920.80 452.32, 922.68 458.25 C 924.56 464.17, 925.82 467.24, 928.65 471.70 C 931.49 476.15, 933.14 478.20, 936.84 480.54 C 940.55 482.88, 942.87 483.45, 947.17 483.38 C 951.48 483.32, 953.89 482.62, 958.37 480.23 C 962.85 477.85, 965.18 475.97, 969.56 471.45 C 973.94 466.94, 976.37 463.94, 980.26 457.68 C 984.15 451.42, 985.99 447.39, 989.02 440.14 C 992.04 432.89, 993.40 428.57, 995.38 421.44 C 997.37 414.30, 998.14 410.61, 998.94 404.46 C 999.75 398.31, 999.52 395.22, 999.42 390.69 C 999.33 386.16, 999.17 384.43, 998.46 381.81 C 997.75 379.19, 996.66 378.72, 995.89 377.59 C 995.12 376.45, 995.08 376.36, 994.62 376.14 C 994.15 375.91, 993.82 375.98, 993.59 376.46 C 993.35 376.94, 993.27 377.27, 993.44 378.54 C 993.60 379.81, 993.85 380.35, 994.41 382.82 C 994.97 385.28, 995.83 386.60, 996.22 390.87 C 996.61 395.14, 996.98 398.17, 996.36 404.16 C 995.74 410.15, 995.02 413.80, 993.12 420.82 C 991.22 427.83, 989.86 432.13, 986.86 439.24 C 983.86 446.34, 981.99 450.30, 978.13 456.33 C 974.26 462.37, 971.77 465.23, 967.52 469.43 C 963.26 473.64, 960.94 475.25, 956.86 477.36 C 952.78 479.48, 950.77 479.91, 947.11 479.99 C 943.45 480.08, 941.76 479.76, 938.57 477.78 C 935.38 475.80, 933.81 474.16, 931.15 470.09 C 928.48 466.02, 927.11 463.09, 925.24 457.42 C 923.37 451.75, 922.61 448.23, 921.80 441.75 C 920.99 435.26, 920.99 431.62, 921.18 424.98 C 921.37 418.35, 921.97 414.90, 922.75 408.57 C 923.53 402.25, 924.19 398.67, 925.08 393.36 C 925.97 388.06, 926.77 385.70, 927.20 382.07 C 927.64 378.43, 927.70 376.63, 927.24 375.20 C 926.78 373.76, 925.70 373.64, 924.89 374.90" style="stroke: black; fill: black;"/></svg>